<svg width="141" height="36" viewBox="0 0 141 36" fill="none" xmlns="http://www.w3.org/2000/svg">
<rect x="0.5" y="1.35925" width="139.92" height="34" rx="17" fill="#E3A164" stroke="#E3A164"/>
<path d="M21.888 25.5233L21.184 26.5793C21.2693 26.6859 21.408 26.7979 21.6 26.9153C21.7813 27.0433 22.0053 27.1499 22.272 27.2353C22.528 27.3313 22.7946 27.3793 23.072 27.3793C23.4453 27.3793 23.7813 27.3259 24.08 27.2193C24.3893 27.1233 24.6506 26.9686 24.864 26.7553C25.0773 26.5419 25.2373 26.2753 25.344 25.9553C25.4613 25.6353 25.52 25.2566 25.52 24.8193V12.6593H24.24V24.6593C24.24 25.1819 24.1173 25.5499 23.872 25.7633C23.6373 25.9873 23.3973 26.0993 23.152 26.0993C22.864 26.0993 22.6133 26.0459 22.4 25.9393C22.176 25.8433 22.0053 25.7046 21.888 25.5233ZM28.5797 21.5873C28.5797 21.3206 28.6437 21.0913 28.7717 20.8993C28.8997 20.7073 29.0917 20.5579 29.3477 20.4513C29.6144 20.3446 29.9557 20.2913 30.3717 20.2913C30.8197 20.2913 31.241 20.3499 31.6357 20.4673C32.0304 20.5739 32.4144 20.7553 32.7877 21.0113V20.2593C32.713 20.1633 32.569 20.0406 32.3557 19.8913C32.1424 19.7313 31.8544 19.5926 31.4917 19.4753C31.1397 19.3473 30.697 19.2833 30.1637 19.2833C29.257 19.2833 28.5477 19.5019 28.0357 19.9393C27.5344 20.3659 27.2837 20.9366 27.2837 21.6513C27.2837 22.1526 27.401 22.5793 27.6357 22.9313C27.8704 23.2833 28.1797 23.5553 28.5637 23.7473C28.9584 23.9286 29.3797 24.0193 29.8277 24.0193C30.233 24.0193 30.6384 23.9446 31.0437 23.7953C31.4597 23.6459 31.8064 23.4166 32.0837 23.1073C32.3717 22.7979 32.5157 22.4086 32.5157 21.9393L32.2597 20.9793C32.2597 21.3633 32.1637 21.7046 31.9717 22.0033C31.7904 22.2913 31.5397 22.5153 31.2197 22.6753C30.9104 22.8353 30.5584 22.9153 30.1637 22.9153C29.8544 22.9153 29.577 22.8673 29.3317 22.7713C29.097 22.6646 28.9104 22.5099 28.7717 22.3073C28.6437 22.1046 28.5797 21.8646 28.5797 21.5873ZM28.3877 18.1953C28.505 18.1099 28.665 18.0086 28.8677 17.8913C29.0704 17.7739 29.3157 17.6726 29.6037 17.5873C29.9024 17.5019 30.233 17.4593 30.5957 17.4593C30.8197 17.4593 31.033 17.4806 31.2357 17.5233C31.4384 17.5659 31.6144 17.6353 31.7637 17.7313C31.9237 17.8273 32.0464 17.9606 32.1317 18.1313C32.217 18.2913 32.2597 18.4993 32.2597 18.7553V23.8593H33.5397V18.5793C33.5397 18.0993 33.417 17.6939 33.1717 17.3633C32.937 17.0326 32.601 16.7819 32.1637 16.6113C31.737 16.4299 31.2357 16.3393 30.6597 16.3393C29.977 16.3393 29.3904 16.4406 28.8997 16.6433C28.4197 16.8459 28.041 17.0486 27.7637 17.2513L28.3877 18.1953ZM36.0108 21.6033L35.0028 22.2273C35.1415 22.5153 35.3442 22.7979 35.6108 23.0753C35.8882 23.3526 36.2242 23.5819 36.6188 23.7633C37.0135 23.9339 37.4562 24.0193 37.9468 24.0193C38.7042 24.0193 39.3122 23.8059 39.7708 23.3793C40.2402 22.9526 40.4748 22.4193 40.4748 21.7793C40.4748 21.3419 40.3682 20.9846 40.1548 20.7073C39.9522 20.4299 39.6748 20.1953 39.3228 20.0033C38.9708 19.8006 38.5815 19.6139 38.1548 19.4433C37.8988 19.3366 37.6535 19.2246 37.4188 19.1073C37.1842 18.9899 36.9922 18.8566 36.8428 18.7073C36.6935 18.5579 36.6188 18.3873 36.6188 18.1953C36.6188 17.9499 36.7148 17.7686 36.9068 17.6513C37.0988 17.5339 37.3282 17.4753 37.5948 17.4753C37.9788 17.4753 38.3202 17.5659 38.6188 17.7473C38.9282 17.9286 39.1842 18.1579 39.3868 18.4353L40.4108 17.7793C40.2615 17.5019 40.0535 17.2566 39.7868 17.0433C39.5202 16.8299 39.2108 16.6593 38.8588 16.5313C38.5175 16.4033 38.1495 16.3393 37.7548 16.3393C37.3602 16.3393 36.9762 16.4086 36.6028 16.5473C36.2402 16.6859 35.9415 16.8993 35.7068 17.1873C35.4828 17.4753 35.3708 17.8379 35.3708 18.2753C35.3708 18.7019 35.4775 19.0593 35.6908 19.3473C35.9148 19.6246 36.1868 19.8539 36.5068 20.0353C36.8375 20.2059 37.1628 20.3553 37.4828 20.4833C37.7708 20.5899 38.0428 20.7073 38.2988 20.8353C38.5548 20.9526 38.7628 21.1019 38.9228 21.2833C39.0935 21.4539 39.1788 21.6673 39.1788 21.9233C39.1788 22.2113 39.0722 22.4406 38.8588 22.6113C38.6562 22.7713 38.3735 22.8513 38.0108 22.8513C37.7122 22.8513 37.4348 22.7979 37.1788 22.6913C36.9335 22.5739 36.7148 22.4193 36.5228 22.2273C36.3308 22.0353 36.1602 21.8273 36.0108 21.6033ZM41.52 20.1793C41.52 20.9153 41.6853 21.5766 42.016 22.1633C42.3573 22.7393 42.816 23.1926 43.392 23.5233C43.968 23.8539 44.6133 24.0193 45.328 24.0193C46.0533 24.0193 46.6986 23.8539 47.264 23.5233C47.84 23.1926 48.2933 22.7393 48.624 22.1633C48.9653 21.5766 49.136 20.9153 49.136 20.1793C49.136 19.4326 48.9653 18.7713 48.624 18.1953C48.2933 17.6193 47.84 17.1659 47.264 16.8353C46.6986 16.5046 46.0533 16.3393 45.328 16.3393C44.6133 16.3393 43.968 16.5046 43.392 16.8353C42.816 17.1659 42.3573 17.6193 42.016 18.1953C41.6853 18.7713 41.52 19.4326 41.52 20.1793ZM42.816 20.1793C42.816 19.6673 42.9226 19.2139 43.136 18.8193C43.36 18.4139 43.6586 18.0993 44.032 17.8753C44.416 17.6513 44.848 17.5393 45.328 17.5393C45.808 17.5393 46.2346 17.6513 46.608 17.8753C46.992 18.0993 47.2906 18.4139 47.504 18.8193C47.728 19.2139 47.84 19.6673 47.84 20.1793C47.84 20.6913 47.728 21.1446 47.504 21.5393C47.2906 21.9339 46.992 22.2486 46.608 22.4833C46.2346 22.7073 45.808 22.8193 45.328 22.8193C44.848 22.8193 44.416 22.7073 44.032 22.4833C43.6586 22.2486 43.36 21.9339 43.136 21.5393C42.9226 21.1446 42.816 20.6913 42.816 20.1793ZM55.6143 19.3793V23.8593H56.8943V19.2193C56.8943 18.3339 56.665 17.6353 56.2063 17.1233C55.7583 16.6006 55.145 16.3393 54.3663 16.3393C53.8863 16.3393 53.4597 16.4459 53.0863 16.6593C52.7237 16.8726 52.4197 17.2033 52.1743 17.6513V16.4993H50.8943V23.8593H52.1743V19.3793C52.1743 19.0166 52.249 18.6966 52.3983 18.4193C52.5583 18.1419 52.777 17.9286 53.0543 17.7793C53.3423 17.6193 53.673 17.5393 54.0463 17.5393C54.5583 17.5393 54.9477 17.6939 55.2143 18.0033C55.481 18.3126 55.6143 18.7713 55.6143 19.3793ZM64.9775 18.2593C64.9775 17.3846 65.1695 16.6219 65.5535 15.9713C65.9481 15.3099 66.4601 14.7926 67.0895 14.4193C67.7188 14.0459 68.4015 13.8593 69.1375 13.8593C69.6708 13.8593 70.1561 13.9286 70.5935 14.0673C71.0415 14.2059 71.4468 14.4033 71.8095 14.6593C72.1721 14.9046 72.4815 15.1926 72.7375 15.5233V13.7313C72.2681 13.3153 71.7561 13.0059 71.2015 12.8033C70.6468 12.6006 69.9588 12.4993 69.1375 12.4993C68.3588 12.4993 67.6281 12.6433 66.9455 12.9313C66.2735 13.2086 65.6815 13.6086 65.1695 14.1313C64.6575 14.6433 64.2575 15.2513 63.9695 15.9553C63.6815 16.6593 63.5375 17.4273 63.5375 18.2593C63.5375 19.0913 63.6815 19.8593 63.9695 20.5633C64.2575 21.2673 64.6575 21.8806 65.1695 22.4033C65.6815 22.9153 66.2735 23.3153 66.9455 23.6033C67.6281 23.8806 68.3588 24.0193 69.1375 24.0193C69.9588 24.0193 70.6468 23.9179 71.2015 23.7153C71.7561 23.5126 72.2681 23.2033 72.7375 22.7873V20.9953C72.4815 21.3259 72.1721 21.6193 71.8095 21.8753C71.4468 22.1206 71.0415 22.3126 70.5935 22.4513C70.1561 22.5899 69.6708 22.6593 69.1375 22.6593C68.4015 22.6593 67.7188 22.4726 67.0895 22.0993C66.4601 21.7259 65.9481 21.2086 65.5535 20.5473C65.1695 19.8859 64.9775 19.1233 64.9775 18.2593ZM75.0506 11.3793V23.8593H76.3306V11.3793H75.0506ZM81.5861 24.0193C82.3754 24.0193 83.0581 23.8646 83.6341 23.5553C84.2208 23.2353 84.7061 22.7659 85.0901 22.1473L84.0501 21.4913C83.7834 21.9393 83.4581 22.2753 83.0741 22.4993C82.6901 22.7126 82.2474 22.8193 81.7461 22.8193C81.2448 22.8193 80.8181 22.7126 80.4661 22.4993C80.1141 22.2859 79.8474 21.9766 79.6661 21.5713C79.4848 21.1659 79.3941 20.6753 79.3941 20.0993C79.4048 19.5339 79.5008 19.0593 79.6821 18.6753C79.8741 18.2806 80.1408 17.9819 80.4821 17.7793C80.8341 17.5659 81.2554 17.4593 81.7461 17.4593C82.1621 17.4593 82.5248 17.5499 82.8341 17.7313C83.1434 17.9126 83.3834 18.1633 83.5541 18.4833C83.7354 18.8033 83.8261 19.1819 83.8261 19.6193C83.8261 19.6939 83.8101 19.7899 83.7781 19.9073C83.7461 20.0139 83.7141 20.0939 83.6821 20.1473L84.1941 19.4113H78.9141V20.4993H85.2021C85.2021 20.4779 85.2021 20.4299 85.2021 20.3553C85.2128 20.2699 85.2181 20.1899 85.2181 20.1153C85.2181 19.3366 85.0794 18.6646 84.8021 18.0993C84.5248 17.5339 84.1248 17.1019 83.6021 16.8033C83.0901 16.4939 82.4714 16.3393 81.7461 16.3393C81.0208 16.3393 80.3808 16.4993 79.8261 16.8193C79.2821 17.1393 78.8554 17.5873 78.5461 18.1633C78.2474 18.7393 78.0981 19.4113 78.0981 20.1793C78.0981 20.9366 78.2421 21.6033 78.5301 22.1793C78.8288 22.7553 79.2394 23.2086 79.7621 23.5393C80.2954 23.8593 80.9034 24.0193 81.5861 24.0193ZM88.2525 16.4993H86.9725V23.8593H88.2525V16.4993ZM90.4765 17.9073L91.1805 16.8513C90.9885 16.6486 90.7751 16.5153 90.5405 16.4513C90.3165 16.3766 90.0711 16.3393 89.8045 16.3393C89.4631 16.3393 89.1271 16.4726 88.7965 16.7393C88.4658 17.0059 88.1938 17.3686 87.9805 17.8273C87.7778 18.2753 87.6765 18.7926 87.6765 19.3793H88.2525C88.2525 19.0273 88.2845 18.7126 88.3485 18.4353C88.4231 18.1579 88.5511 17.9393 88.7325 17.7793C88.9138 17.6193 89.1645 17.5393 89.4845 17.5393C89.6978 17.5393 89.8738 17.5713 90.0125 17.6353C90.1511 17.6886 90.3058 17.7793 90.4765 17.9073ZM92.3768 11.3793V23.8593H93.6568V11.3793H92.3768ZM96.3768 16.4993L93.1768 19.5393L96.6968 23.8593H98.2968L94.7768 19.5393L97.9768 16.4993H96.3768ZM104.381 12.6593V23.8593H105.741V12.6593H104.381ZM108.302 12.6593V23.8593H109.662V12.6593H108.302ZM111.662 23.8593C112.75 23.8593 113.716 23.6246 114.558 23.1553C115.401 22.6859 116.062 22.0353 116.542 21.2033C117.022 20.3606 117.262 19.3793 117.262 18.2593C117.262 17.1393 117.022 16.1633 116.542 15.3313C116.062 14.4886 115.401 13.8326 114.558 13.3633C113.716 12.8939 112.75 12.6593 111.662 12.6593H109.054V14.0193H111.662C112.292 14.0193 112.868 14.1206 113.39 14.3233C113.913 14.5153 114.361 14.7979 114.734 15.1713C115.108 15.5339 115.396 15.9766 115.598 16.4993C115.801 17.0219 115.902 17.6086 115.902 18.2593C115.902 18.9099 115.801 19.4966 115.598 20.0193C115.396 20.5419 115.108 20.9899 114.734 21.3633C114.361 21.7259 113.913 22.0086 113.39 22.2113C112.868 22.4033 112.292 22.4993 111.662 22.4993H109.054V23.8593H111.662Z" fill="#28052A"/>
</svg>
