<svg width="130" height="35" viewBox="0 0 130 35" fill="none" xmlns="http://www.w3.org/2000/svg">
<rect x="0.854248" y="0.500244" width="127.92" height="34" rx="17" fill="#E3A164" stroke="#E3A164"/>
<path d="M25.3942 17.4002C25.3942 16.5256 25.5862 15.7629 25.9702 15.1122C26.3649 14.4509 26.8769 13.9336 27.5062 13.5602C28.1355 13.1869 28.8182 13.0002 29.5542 13.0002C30.0875 13.0002 30.5729 13.0696 31.0102 13.2082C31.4582 13.3469 31.8635 13.5442 32.2262 13.8002C32.5889 14.0456 32.8982 14.3336 33.1542 14.6642V12.8722C32.6849 12.4562 32.1729 12.1469 31.6182 11.9442C31.0635 11.7416 30.3755 11.6402 29.5542 11.6402C28.7755 11.6402 28.0449 11.7842 27.3622 12.0722C26.6902 12.3496 26.0982 12.7496 25.5862 13.2722C25.0742 13.7842 24.6742 14.3922 24.3862 15.0962C24.0982 15.8002 23.9542 16.5682 23.9542 17.4002C23.9542 18.2322 24.0982 19.0002 24.3862 19.7042C24.6742 20.4082 25.0742 21.0216 25.5862 21.5442C26.0982 22.0562 26.6902 22.4562 27.3622 22.7442C28.0449 23.0216 28.7755 23.1602 29.5542 23.1602C30.3755 23.1602 31.0635 23.0589 31.6182 22.8562C32.1729 22.6536 32.6849 22.3442 33.1542 21.9282V20.1362C32.8982 20.4669 32.5889 20.7602 32.2262 21.0162C31.8635 21.2616 31.4582 21.4536 31.0102 21.5922C30.5729 21.7309 30.0875 21.8002 29.5542 21.8002C28.8182 21.8002 28.1355 21.6136 27.5062 21.2402C26.8769 20.8669 26.3649 20.3496 25.9702 19.6882C25.5862 19.0269 25.3942 18.2642 25.3942 17.4002ZM36.0433 20.7282C36.0433 20.4616 36.1073 20.2322 36.2353 20.0402C36.3633 19.8482 36.5553 19.6989 36.8113 19.5922C37.078 19.4856 37.4193 19.4322 37.8353 19.4322C38.2833 19.4322 38.7047 19.4909 39.0993 19.6082C39.494 19.7149 39.878 19.8962 40.2513 20.1522V19.4002C40.1767 19.3042 40.0327 19.1816 39.8193 19.0322C39.606 18.8722 39.318 18.7336 38.9553 18.6162C38.6033 18.4882 38.1607 18.4242 37.6273 18.4242C36.7207 18.4242 36.0113 18.6429 35.4993 19.0802C34.998 19.5069 34.7473 20.0776 34.7473 20.7922C34.7473 21.2936 34.8647 21.7202 35.0993 22.0722C35.334 22.4242 35.6433 22.6962 36.0273 22.8882C36.422 23.0696 36.8433 23.1602 37.2913 23.1602C37.6967 23.1602 38.102 23.0856 38.5073 22.9362C38.9233 22.7869 39.27 22.5576 39.5473 22.2482C39.8353 21.9389 39.9793 21.5496 39.9793 21.0802L39.7233 20.1202C39.7233 20.5042 39.6273 20.8456 39.4353 21.1442C39.254 21.4322 39.0033 21.6562 38.6833 21.8162C38.374 21.9762 38.022 22.0562 37.6273 22.0562C37.318 22.0562 37.0407 22.0082 36.7953 21.9122C36.5607 21.8056 36.374 21.6509 36.2353 21.4482C36.1073 21.2456 36.0433 21.0056 36.0433 20.7282ZM35.8513 17.3362C35.9687 17.2509 36.1287 17.1496 36.3313 17.0322C36.534 16.9149 36.7793 16.8136 37.0673 16.7282C37.366 16.6429 37.6967 16.6002 38.0593 16.6002C38.2833 16.6002 38.4967 16.6216 38.6993 16.6642C38.902 16.7069 39.078 16.7762 39.2273 16.8722C39.3873 16.9682 39.51 17.1016 39.5953 17.2722C39.6807 17.4322 39.7233 17.6402 39.7233 17.8962V23.0002H41.0033V17.7202C41.0033 17.2402 40.8807 16.8349 40.6353 16.5042C40.4007 16.1736 40.0647 15.9229 39.6273 15.7522C39.2007 15.5709 38.6993 15.4802 38.1233 15.4802C37.4407 15.4802 36.854 15.5816 36.3633 15.7842C35.8833 15.9869 35.5047 16.1896 35.2273 16.3922L35.8513 17.3362ZM47.8905 18.5202V23.0002H49.1705V18.3602C49.1705 17.4749 48.9411 16.7762 48.4825 16.2642C48.0345 15.7416 47.4211 15.4802 46.6425 15.4802C46.1625 15.4802 45.7358 15.5869 45.3625 15.8002C44.9998 16.0136 44.6958 16.3442 44.4505 16.7922V15.6402H43.1705V23.0002H44.4505V18.5202C44.4505 18.1576 44.5251 17.8376 44.6745 17.5602C44.8345 17.2829 45.0531 17.0696 45.3305 16.9202C45.6185 16.7602 45.9491 16.6802 46.3225 16.6802C46.8345 16.6802 47.2238 16.8349 47.4905 17.1442C47.7571 17.4536 47.8905 17.9122 47.8905 18.5202ZM52.1527 20.7282C52.1527 20.4616 52.2167 20.2322 52.3447 20.0402C52.4727 19.8482 52.6647 19.6989 52.9207 19.5922C53.1874 19.4856 53.5287 19.4322 53.9447 19.4322C54.3927 19.4322 54.814 19.4909 55.2087 19.6082C55.6034 19.7149 55.9874 19.8962 56.3607 20.1522V19.4002C56.286 19.3042 56.142 19.1816 55.9287 19.0322C55.7154 18.8722 55.4274 18.7336 55.0647 18.6162C54.7127 18.4882 54.27 18.4242 53.7367 18.4242C52.83 18.4242 52.1207 18.6429 51.6087 19.0802C51.1074 19.5069 50.8567 20.0776 50.8567 20.7922C50.8567 21.2936 50.974 21.7202 51.2087 22.0722C51.4434 22.4242 51.7527 22.6962 52.1367 22.8882C52.5314 23.0696 52.9527 23.1602 53.4007 23.1602C53.806 23.1602 54.2114 23.0856 54.6167 22.9362C55.0327 22.7869 55.3794 22.5576 55.6567 22.2482C55.9447 21.9389 56.0887 21.5496 56.0887 21.0802L55.8327 20.1202C55.8327 20.5042 55.7367 20.8456 55.5447 21.1442C55.3634 21.4322 55.1127 21.6562 54.7927 21.8162C54.4834 21.9762 54.1314 22.0562 53.7367 22.0562C53.4274 22.0562 53.15 22.0082 52.9047 21.9122C52.67 21.8056 52.4834 21.6509 52.3447 21.4482C52.2167 21.2456 52.1527 21.0056 52.1527 20.7282ZM51.9607 17.3362C52.078 17.2509 52.238 17.1496 52.4407 17.0322C52.6434 16.9149 52.8887 16.8136 53.1767 16.7282C53.4754 16.6429 53.806 16.6002 54.1687 16.6002C54.3927 16.6002 54.606 16.6216 54.8087 16.6642C55.0114 16.7069 55.1874 16.7762 55.3367 16.8722C55.4967 16.9682 55.6194 17.1016 55.7047 17.2722C55.79 17.4322 55.8327 17.6402 55.8327 17.8962V23.0002H57.1127V17.7202C57.1127 17.2402 56.99 16.8349 56.7447 16.5042C56.51 16.1736 56.174 15.9229 55.7367 15.7522C55.31 15.5709 54.8087 15.4802 54.2327 15.4802C53.55 15.4802 52.9634 15.5816 52.4727 15.7842C51.9927 15.9869 51.614 16.1896 51.3367 16.3922L51.9607 17.3362ZM64.7998 10.5202V23.0002H66.0798V10.5202H64.7998ZM58.6398 19.3202C58.6398 20.1096 58.8052 20.7922 59.1358 21.3682C59.4665 21.9442 59.9092 22.3869 60.4638 22.6962C61.0185 23.0056 61.6265 23.1602 62.2878 23.1602C62.9065 23.1602 63.4452 23.0056 63.9038 22.6962C64.3625 22.3869 64.7198 21.9442 64.9758 21.3682C65.2425 20.7922 65.3758 20.1096 65.3758 19.3202C65.3758 18.5202 65.2425 17.8376 64.9758 17.2722C64.7198 16.6962 64.3625 16.2536 63.9038 15.9442C63.4452 15.6349 62.9065 15.4802 62.2878 15.4802C61.6265 15.4802 61.0185 15.6349 60.4638 15.9442C59.9092 16.2536 59.4665 16.6962 59.1358 17.2722C58.8052 17.8376 58.6398 18.5202 58.6398 19.3202ZM59.9358 19.3202C59.9358 18.7549 60.0478 18.2749 60.2718 17.8802C60.5065 17.4856 60.8158 17.1869 61.1998 16.9842C61.5838 16.7816 61.9998 16.6802 62.4478 16.6802C62.8212 16.6802 63.1892 16.7816 63.5518 16.9842C63.9145 17.1869 64.2132 17.4856 64.4478 17.8802C64.6825 18.2749 64.7998 18.7549 64.7998 19.3202C64.7998 19.8856 64.6825 20.3656 64.4478 20.7602C64.2132 21.1549 63.9145 21.4536 63.5518 21.6562C63.1892 21.8589 62.8212 21.9602 62.4478 21.9602C61.9998 21.9602 61.5838 21.8589 61.1998 21.6562C60.8158 21.4536 60.5065 21.1549 60.2718 20.7602C60.0478 20.3656 59.9358 19.8856 59.9358 19.3202ZM68.9808 20.7282C68.9808 20.4616 69.0448 20.2322 69.1728 20.0402C69.3008 19.8482 69.4928 19.6989 69.7488 19.5922C70.0155 19.4856 70.3568 19.4322 70.7728 19.4322C71.2208 19.4322 71.6422 19.4909 72.0368 19.6082C72.4315 19.7149 72.8155 19.8962 73.1888 20.1522V19.4002C73.1142 19.3042 72.9702 19.1816 72.7568 19.0322C72.5435 18.8722 72.2555 18.7336 71.8928 18.6162C71.5408 18.4882 71.0982 18.4242 70.5648 18.4242C69.6582 18.4242 68.9488 18.6429 68.4368 19.0802C67.9355 19.5069 67.6848 20.0776 67.6848 20.7922C67.6848 21.2936 67.8022 21.7202 68.0368 22.0722C68.2715 22.4242 68.5808 22.6962 68.9648 22.8882C69.3595 23.0696 69.7808 23.1602 70.2288 23.1602C70.6342 23.1602 71.0395 23.0856 71.4448 22.9362C71.8608 22.7869 72.2075 22.5576 72.4848 22.2482C72.7728 21.9389 72.9168 21.5496 72.9168 21.0802L72.6608 20.1202C72.6608 20.5042 72.5648 20.8456 72.3728 21.1442C72.1915 21.4322 71.9408 21.6562 71.6208 21.8162C71.3115 21.9762 70.9595 22.0562 70.5648 22.0562C70.2555 22.0562 69.9782 22.0082 69.7328 21.9122C69.4982 21.8056 69.3115 21.6509 69.1728 21.4482C69.0448 21.2456 68.9808 21.0056 68.9808 20.7282ZM68.7888 17.3362C68.9062 17.2509 69.0662 17.1496 69.2688 17.0322C69.4715 16.9149 69.7168 16.8136 70.0048 16.7282C70.3035 16.6429 70.6342 16.6002 70.9968 16.6002C71.2208 16.6002 71.4342 16.6216 71.6368 16.6642C71.8395 16.7069 72.0155 16.7762 72.1648 16.8722C72.3248 16.9682 72.4475 17.1016 72.5328 17.2722C72.6182 17.4322 72.6608 17.6402 72.6608 17.8962V23.0002H73.9408V17.7202C73.9408 17.2402 73.8182 16.8349 73.5728 16.5042C73.3382 16.1736 73.0022 15.9229 72.5648 15.7522C72.1382 15.5709 71.6368 15.4802 71.0608 15.4802C70.3782 15.4802 69.7915 15.5816 69.3008 15.7842C68.8208 15.9869 68.4422 16.1896 68.1648 16.3922L68.7888 17.3362ZM80.9848 14.0082L83.4648 13.2722V23.0002H84.8248V11.6402L80.9848 12.6002V14.0082ZM95.292 19.3202C95.292 18.5736 95.148 17.9176 94.86 17.3522C94.572 16.7869 94.172 16.3442 93.66 16.0242C93.1586 15.7042 92.588 15.5442 91.948 15.5442C91.6706 15.5442 91.388 15.5816 91.1 15.6562C90.8226 15.7202 90.5506 15.8216 90.284 15.9602L91.036 13.0002H95.26V11.8002H89.98L88.508 17.7682C88.892 17.5016 89.228 17.2989 89.516 17.1602C89.8146 17.0109 90.108 16.9096 90.396 16.8562C90.6946 16.7922 91.02 16.7602 91.372 16.7602C91.852 16.7602 92.2786 16.8669 92.652 17.0802C93.036 17.2936 93.3346 17.5922 93.548 17.9762C93.772 18.3602 93.884 18.8082 93.884 19.3202C93.884 19.8322 93.7826 20.2802 93.58 20.6642C93.388 21.0482 93.1053 21.3469 92.732 21.5602C92.3586 21.7736 91.9053 21.8802 91.372 21.8802C90.9666 21.8802 90.5773 21.7949 90.204 21.6242C89.8306 21.4429 89.5 21.2136 89.212 20.9362C88.9346 20.6482 88.7106 20.3442 88.54 20.0242L87.388 20.8082C87.6333 21.2349 87.932 21.6296 88.284 21.9922C88.6466 22.3442 89.0786 22.6269 89.58 22.8402C90.092 23.0536 90.6893 23.1602 91.372 23.1602C91.916 23.1602 92.4226 23.0802 92.892 22.9202C93.3613 22.7602 93.7773 22.5202 94.14 22.2002C94.5026 21.8802 94.7853 21.4802 94.988 21.0002C95.1906 20.5202 95.292 19.9602 95.292 19.3202ZM97.9392 17.4002C97.9392 16.7496 98.0032 16.1522 98.1312 15.6082C98.2592 15.0536 98.4459 14.5789 98.6912 14.1842C98.9365 13.7789 99.2299 13.4696 99.5712 13.2562C99.9232 13.0322 100.313 12.9202 100.739 12.9202C101.177 12.9202 101.566 13.0322 101.907 13.2562C102.249 13.4696 102.542 13.7789 102.787 14.1842C103.033 14.5789 103.219 15.0536 103.347 15.6082C103.475 16.1522 103.539 16.7496 103.539 17.4002C103.539 18.0509 103.475 18.6536 103.347 19.2082C103.219 19.7522 103.033 20.2269 102.787 20.6322C102.542 21.0269 102.249 21.3362 101.907 21.5602C101.566 21.7736 101.177 21.8802 100.739 21.8802C100.313 21.8802 99.9232 21.7736 99.5712 21.5602C99.2299 21.3362 98.9365 21.0269 98.6912 20.6322C98.4459 20.2269 98.2592 19.7522 98.1312 19.2082C98.0032 18.6536 97.9392 18.0509 97.9392 17.4002ZM96.5792 17.4002C96.5792 18.5202 96.7552 19.5122 97.1072 20.3762C97.4592 21.2402 97.9445 21.9229 98.5632 22.4242C99.1925 22.9149 99.9179 23.1602 100.739 23.1602C101.561 23.1602 102.281 22.9149 102.899 22.4242C103.529 21.9229 104.019 21.2402 104.371 20.3762C104.723 19.5122 104.899 18.5202 104.899 17.4002C104.899 16.2802 104.723 15.2882 104.371 14.4242C104.019 13.5602 103.529 12.8829 102.899 12.3922C102.281 11.8909 101.561 11.6402 100.739 11.6402C99.9179 11.6402 99.1925 11.8909 98.5632 12.3922C97.9445 12.8829 97.4592 13.5602 97.1072 14.4242C96.7552 15.2882 96.5792 16.2802 96.5792 17.4002Z" fill="#28052A"/>
</svg>
