<svg width="95" height="37" viewBox="0 0 95 37" fill="none" xmlns="http://www.w3.org/2000/svg">
<rect x="0.751591" y="1.2912" width="92.9602" height="34.04" rx="16.5" fill="#E3A164" stroke="#E3A164"/>
<rect x="0.751591" y="1.2912" width="92.9602" height="34.04" rx="16.5" fill="#E3A164" stroke="#E3A164"/>
<path d="M29.9497 19.9112H33.6777C33.5817 20.3486 33.4271 20.7592 33.2137 21.1432C33.0111 21.5272 32.7497 21.8686 32.4297 22.1672C32.1097 22.4659 31.7257 22.7006 31.2777 22.8712C30.8404 23.0312 30.3444 23.1112 29.7897 23.1112C29.0004 23.1112 28.2857 22.9246 27.6457 22.5512C27.0057 22.1779 26.4937 21.6606 26.1097 20.9992C25.7364 20.3379 25.5497 19.5752 25.5497 18.7112C25.5497 17.8366 25.7364 17.0739 26.1097 16.4232C26.4937 15.7619 27.0057 15.2446 27.6457 14.8712C28.2857 14.4979 29.0004 14.3112 29.7897 14.3112C30.6431 14.3112 31.3844 14.4819 32.0137 14.8232C32.6431 15.1539 33.1337 15.6179 33.4857 16.2152L34.4457 15.3352C34.1257 14.8126 33.7311 14.3752 33.2617 14.0232C32.8031 13.6712 32.2804 13.4046 31.6937 13.2232C31.1177 13.0419 30.4831 12.9512 29.7897 12.9512C28.9791 12.9512 28.2271 13.0952 27.5337 13.3832C26.8404 13.6606 26.2377 14.0606 25.7257 14.5832C25.2137 15.0952 24.8137 15.7032 24.5257 16.4072C24.2484 17.1112 24.1097 17.8792 24.1097 18.7112C24.1097 19.5432 24.2484 20.3112 24.5257 21.0152C24.8137 21.7192 25.2137 22.3326 25.7257 22.8552C26.2377 23.3672 26.8404 23.7672 27.5337 24.0552C28.2271 24.3326 28.9791 24.4712 29.7897 24.4712C30.6431 24.4712 31.4004 24.3166 32.0617 24.0072C32.7337 23.6872 33.2991 23.2552 33.7577 22.7112C34.2164 22.1672 34.5631 21.5486 34.7977 20.8552C35.0324 20.1512 35.1497 19.4099 35.1497 18.6312H29.9497V19.9112ZM36.436 20.6312C36.436 21.3672 36.6013 22.0286 36.932 22.6152C37.2733 23.1912 37.732 23.6446 38.308 23.9752C38.884 24.3059 39.5293 24.4712 40.244 24.4712C40.9693 24.4712 41.6146 24.3059 42.18 23.9752C42.756 23.6446 43.2093 23.1912 43.54 22.6152C43.8813 22.0286 44.052 21.3672 44.052 20.6312C44.052 19.8846 43.8813 19.2232 43.54 18.6472C43.2093 18.0712 42.756 17.6179 42.18 17.2872C41.6146 16.9566 40.9693 16.7912 40.244 16.7912C39.5293 16.7912 38.884 16.9566 38.308 17.2872C37.732 17.6179 37.2733 18.0712 36.932 18.6472C36.6013 19.2232 36.436 19.8846 36.436 20.6312ZM37.732 20.6312C37.732 20.1192 37.8386 19.6659 38.052 19.2712C38.276 18.8659 38.5746 18.5512 38.948 18.3272C39.332 18.1032 39.764 17.9912 40.244 17.9912C40.724 17.9912 41.1506 18.1032 41.524 18.3272C41.908 18.5512 42.2066 18.8659 42.42 19.2712C42.644 19.6659 42.756 20.1192 42.756 20.6312C42.756 21.1432 42.644 21.5966 42.42 21.9912C42.2066 22.3859 41.908 22.7006 41.524 22.9352C41.1506 23.1592 40.724 23.2712 40.244 23.2712C39.764 23.2712 39.332 23.1592 38.948 22.9352C38.5746 22.7006 38.276 22.3859 38.052 21.9912C37.8386 21.5966 37.732 21.1432 37.732 20.6312Z" fill="white"/>
<g clip-path="url(#clip0_768_12175)">
<path d="M59.4697 25.3112L66.4697 18.3112L59.4697 11.3112M66.4697 18.3112L52.4697 18.3112" stroke="white" stroke-linecap="round" stroke-linejoin="round"/>
</g>
<defs>
<clipPath id="clip0_768_12175">
<rect width="24" height="24" fill="white" transform="translate(47.4697 6.31122)"/>
</clipPath>
</defs>
</svg>
